<svg width="32" height="32" viewBox="0 0 32 32" fill="none" xmlns="http://www.w3.org/2000/svg">
<path fill-rule="evenodd" clip-rule="evenodd" d="M15 2V5H17V2H15ZM16 23C19.866 23 23 19.866 23 16C23 12.134 19.866 9 16 9C12.134 9 8.99999 12.134 8.99999 16C8.99999 19.866 12.134 23 16 23ZM16 25C20.9706 25 25 20.9706 25 16C25 11.0294 20.9706 7 16 7C11.0294 7 6.99999 11.0294 6.99999 16C6.99999 20.9706 11.0294 25 16 25ZM25.0262 9.63397L27.6243 8.13397L28.6243 9.86603L26.0262 11.366L25.0262 9.63397ZM3.37566 9.86603L5.97374 11.366L6.97374 9.63397L4.37566 8.13397L3.37566 9.86603ZM15 30V27H17V30H15ZM3.37561 22.134L5.97369 20.634L6.97369 22.366L4.37561 23.866L3.37561 22.134ZM25.0263 22.366L27.6244 23.866L28.6244 22.134L26.0263 20.634L25.0263 22.366Z" fill="url(#paint0_linear_206_843)"/>
<defs>
<linearGradient id="paint0_linear_206_843" x1="16" y1="2" x2="16" y2="30" gradientUnits="userSpaceOnUse">
<stop stop-color="#CED3EA"/>
<stop offset="1" stop-color="#7E83A9"/>
</linearGradient>
</defs>
</svg>
